<?xml version="1.0" encoding="UTF-8" standalone="no"?>
<svg
   xmlns:dc="http://purl.org/dc/elements/1.1/"
   xmlns:cc="http://creativecommons.org/ns#"
   xmlns:rdf="http://www.w3.org/1999/02/22-rdf-syntax-ns#"
   xmlns:svg="http://www.w3.org/2000/svg"
   xmlns="http://www.w3.org/2000/svg"
   xmlns:sodipodi="http://sodipodi.sourceforge.net/DTD/sodipodi-0.dtd"
   xmlns:inkscape="http://www.inkscape.org/namespaces/inkscape"
   version="1.0"
   width="3976.000000pt"
   height="465.000000pt"
   viewBox="0 0 3976.000000 465.000000"
   preserveAspectRatio="xMidYMid meet"
   id="svg50"
   sodipodi:docname="logo.svg"
   inkscape:version="0.92.4 (5da689c313, 2019-01-14)">
  <metadata
     id="metadata56">
    <rdf:RDF>
      <cc:Work
         rdf:about="">
        <dc:format>image/svg+xml</dc:format>
        <dc:type
           rdf:resource="http://purl.org/dc/dcmitype/StillImage" />
        <dc:title></dc:title>
      </cc:Work>
    </rdf:RDF>
  </metadata>
  <defs
     id="defs54" />
  <sodipodi:namedview
     pagecolor="#ffffff"
     bordercolor="#666666"
     borderopacity="1"
     objecttolerance="10"
     gridtolerance="10"
     guidetolerance="10"
     inkscape:pageopacity="0"
     inkscape:pageshadow="2"
     inkscape:window-width="1920"
     inkscape:window-height="1001"
     id="namedview52"
     showgrid="false"
     inkscape:zoom="0.33274648"
     inkscape:cx="1661.0594"
     inkscape:cy="127.0975"
     inkscape:window-x="-9"
     inkscape:window-y="-9"
     inkscape:window-maximized="1"
     inkscape:current-layer="svg50" />
  <g
     transform="translate(0.000000,465.000000) scale(0.100000,-0.100000)"
     fill="#000000"
     stroke="none"
     id="g48">
    <path
       d="M1637 4629 c-428 -63 -775 -312 -1077 -774 -67 -103 -237 -434 -275 -535 -16 -43 -11 -39 137 105 616 605 1417 998 2123 1043 l120 8 -140 46 c-255 85 -449 118 -680 117 -82 -1 -176 -5 -208 -10z"
       id="path2"
       style="fill:#fa213b;fill-opacity:1" />
    <path
       d="M2460 3963 c-92 -11 -288 -56 -400 -94 -856 -285 -1701 -1042 -1801 -1613 -73 -424 311 -926 999 -1305 330 -182 717 -319 1067 -378 155 -26 495 -26 613 0 310 68 507 209 642 459 257 478 251 1412 -15 2103 -98 254 -216 448 -364 595 -134 133 -252 197 -410 226 -70 12 -249 16 -331 7z"
       id="path4"
       style="fill:#fa213b;fill-opacity:1" />
    <path
       d="M33363 3880 c-116 -24 -183 -107 -183 -225 0 -94 42 -164 125 -208 61 -33 192 -31 260 3 169 87 158 341 -17 414 -47 20 -132 27 -185 16z"
       id="path6"
       style="fill:#1a202c;fill-opacity:1" />
    <path
       d="M21225 3861 c-46 -20 -91 -69 -103 -109 -9 -36 -9 -2609 1 -2644 10 -38 65 -98 104 -114 42 -18 144 -18 186 0 43 18 95 78 101 118 3 18 7 281 9 583 3 480 6 557 20 608 29 101 68 169 137 238 107 109 219 152 395 153 205 1 324 -77 383 -252 14 -41 17 -134 22 -687 5 -603 6 -642 24 -678 28 -57 85 -90 161 -95 102 -7 181 33 211 105 21 50 20 1255 -1 1376 -51 293 -200 470 -452 539 -62 17 -108 21 -228 22 -177 0 -243 -13 -383 -80 -72 -35 -108 -60 -165 -117 -40 -39 -85 -88 -100 -107 l-26 -35 -1 533 c0 439 -2 538 -14 560 -19 36 -65 78 -99 91 -44 17 -137 13 -182 -8z"
       id="path8"
       style="fill:#1a202c;fill-opacity:1" />
    <path
       d="M29451 3870 c-47 -20 -84 -54 -102 -94 -18 -39 -19 -95 -19 -1341 0 -826 4 -1313 10 -1336 20 -71 99 -119 197 -119 100 1 170 47 193 129 8 24 10 453 8 1341 -3 1468 4 1342 -80 1397 -34 23 -54 28 -112 30 -39 2 -82 -2 -95 -7z"
       id="path10"
       style="fill:#1a202c;fill-opacity:1" />
    <path
       d="M37411 3859 c-311 -28 -526 -160 -642 -394 -53 -109 -79 -215 -86 -362 l-6 -123 -146 0 c-168 0 -216 -14 -251 -72 -27 -45 -27 -131 0 -176 32 -53 74 -65 248 -70 l152 -4 0 -762 c0 -468 4 -775 10 -796 11 -41 60 -91 107 -110 20 -7 60 -11 101 -8 83 4 139 36 168 95 18 36 19 74 22 809 l2 772 233 3 c255 4 273 8 321 72 29 40 30 134 0 173 -51 68 -52 69 -315 72 l-239 3 0 102 c1 263 96 405 302 451 35 8 101 17 148 21 165 13 227 66 218 183 -4 46 -10 60 -35 83 -53 46 -122 55 -312 38z"
       id="path12"
       style="fill:#1a202c;fill-opacity:1" />
    <path
       d="M3925 3557 c354 -718 446 -1762 217 -2470 -16 -48 -26 -87 -22 -87 12 0 171 179 238 269 331 441 408 924 225 1416 -39 107 -145 309 -219 420 -122 184 -303 400 -454 542 l-56 52 71 -142z"
       id="path14"
       style="fill:#fa213b;fill-opacity:1" />
    <path
       d="M6311 3590 c-39 -9 -77 -35 -105 -74 -20 -26 -21 -45 -26 -279 l-5 -252 -162 -5 c-176 -5 -190 -10 -237 -74 -29 -38 -29 -134 0 -173 43 -58 72 -66 245 -71 l158 -5 3 -576 c4 -644 2 -622 78 -777 106 -216 339 -324 700 -324 108 0 166 21 204 73 28 38 27 128 -1 165 -36 48 -71 61 -215 76 -198 21 -279 65 -328 178 -33 78 -40 188 -40 705 l0 481 233 4 c208 3 236 5 272 23 50 25 79 74 79 135 0 63 -29 109 -84 138 -42 21 -56 22 -272 22 l-228 0 0 240 c0 220 -2 244 -20 280 -41 80 -140 116 -249 90z"
       id="path16"
       style="fill:#1a202c;fill-opacity:1" />
    <path
       d="M26010 3591 c-54 -17 -89 -42 -112 -78 -22 -37 -23 -46 -26 -285 l-3 -248 -147 0 c-169 0 -216 -14 -252 -72 -27 -45 -27 -131 0 -176 32 -53 74 -65 247 -70 l152 -4 4 -562 c3 -540 4 -564 25 -645 84 -319 326 -471 753 -471 91 0 112 3 149 23 75 39 102 131 62 207 -28 52 -72 69 -220 84 -206 22 -282 66 -333 193 l-24 58 -3 556 -3 557 233 3 c261 4 278 9 326 80 20 28 23 44 20 92 -4 49 -9 62 -38 92 -19 19 -50 40 -70 45 -19 5 -133 10 -252 10 l-218 0 0 230 c0 186 -3 238 -15 268 -19 44 -50 79 -87 98 -34 17 -134 26 -168 15z"
       id="path18"
       style="fill:#1a202c;fill-opacity:1" />
    <path
       d="M8151 3019 c-231 -27 -506 -123 -607 -212 -58 -51 -74 -84 -74 -149 0 -66 25 -115 71 -140 47 -26 85 -19 199 35 230 109 374 147 554 147 158 0 230 -22 301 -93 73 -74 98 -153 99 -325 l1 -127 -260 -6 c-561 -14 -818 -86 -940 -264 -100 -146 -108 -384 -19 -564 43 -87 147 -197 236 -249 123 -72 285 -108 451 -100 224 12 407 117 508 293 l29 50 0 -80 c1 -138 22 -189 96 -233 33 -19 51 -22 116 -20 112 4 159 45 179 153 14 79 6 1226 -10 1307 -68 352 -261 534 -615 578 -93 12 -209 11 -315 -1z m546 -1211 c-6 -126 -24 -194 -70 -283 -110 -207 -373 -306 -594 -223 -82 30 -175 124 -197 198 -46 153 4 285 129 344 112 53 253 73 549 75 l189 1 -6 -112z"
       id="path20"
       style="fill:#1a202c;fill-opacity:1" />
    <path
       d="M10295 3019 c-305 -44 -559 -251 -674 -549 -91 -234 -97 -580 -16 -819 77 -227 221 -398 420 -497 125 -62 214 -84 370 -91 107 -4 147 -1 228 15 187 39 348 145 434 285 37 59 38 60 41 31 2 -16 2 -121 -1 -234 -3 -174 -7 -215 -25 -271 -73 -223 -244 -329 -531 -329 -64 0 -145 5 -181 10 -109 18 -278 77 -450 159 -144 68 -240 18 -240 -127 0 -123 142 -227 414 -306 184 -54 509 -73 702 -41 371 60 595 255 686 596 22 84 22 88 25 1053 l4 968 -22 45 c-30 62 -82 94 -162 100 -80 7 -141 -18 -183 -72 -28 -37 -29 -43 -32 -162 l-4 -124 -37 58 c-46 71 -151 170 -222 211 -153 86 -350 119 -544 91z m383 -334 c192 -46 335 -194 394 -412 17 -64 21 -107 21 -233 0 -126 -4 -169 -21 -233 -55 -202 -180 -345 -349 -397 -237 -73 -497 -1 -630 174 -99 131 -138 280 -130 496 6 151 21 220 72 328 65 137 200 245 348 277 83 18 218 18 295 0z"
       id="path22"
       style="fill:#1a202c;fill-opacity:1" />
    <path
       d="M15325 3020 c-206 -33 -399 -150 -497 -303 l-33 -52 -5 120 c-3 66 -10 129 -17 140 -73 127 -282 124 -358 -5 -20 -35 -20 -46 -20 -926 l0 -890 27 -41 c35 -53 96 -83 171 -83 95 0 155 34 188 105 17 37 19 78 19 570 1 584 5 635 59 751 38 82 132 181 209 222 146 78 344 90 482 31 59 -25 133 -100 160 -162 47 -106 50 -145 50 -772 1 -622 2 -637 47 -687 46 -53 181 -76 256 -44 39 16 82 61 96 99 18 47 15 1228 -4 1347 -28 185 -84 309 -185 410 -113 113 -259 167 -470 175 -63 2 -142 0 -175 -5z"
       id="path24"
       style="fill:#1a202c;fill-opacity:1" />
    <path
       d="M17405 3024 c-273 -40 -472 -162 -614 -374 -102 -152 -156 -328 -167 -545 -32 -615 333 -1045 886 -1045 276 0 490 102 620 297 l52 78 -5 -225 c-3 -158 -10 -244 -21 -288 -47 -187 -173 -307 -364 -347 -79 -17 -269 -19 -362 -4 -89 14 -242 66 -380 130 -77 35 -132 54 -167 57 -50 4 -55 3 -92 -34 -27 -28 -40 -51 -45 -80 -19 -109 49 -194 218 -275 181 -86 393 -128 648 -129 240 0 390 29 548 107 79 39 110 62 180 132 98 98 153 193 193 331 44 153 47 214 47 1160 0 847 -1 897 -19 935 -35 79 -112 121 -206 113 -73 -6 -125 -36 -154 -88 -21 -37 -25 -61 -29 -152 l-5 -109 -39 60 c-81 125 -235 230 -395 272 -76 19 -264 32 -328 23z m399 -353 c88 -31 137 -63 201 -133 72 -77 128 -192 151 -307 21 -105 15 -344 -11 -436 -56 -203 -200 -350 -385 -396 -87 -22 -252 -17 -335 9 -124 38 -234 125 -299 237 -67 114 -102 309 -86 487 11 124 25 177 72 276 69 145 189 241 348 277 92 21 266 14 344 -14z"
       id="path26"
       style="fill:#1a202c;fill-opacity:1" />
    <path
       d="M19770 3024 c-185 -27 -296 -63 -403 -133 -129 -85 -228 -221 -257 -353 -18 -79 -8 -238 18 -306 71 -182 240 -284 630 -378 344 -82 446 -127 490 -214 58 -116 0 -253 -133 -310 -134 -57 -414 -57 -570 1 -16 7 -101 45 -188 87 -169 80 -213 90 -263 58 -40 -27 -68 -99 -60 -159 8 -71 44 -120 132 -177 172 -112 404 -170 681 -170 527 0 853 270 803 663 -20 164 -105 282 -258 360 -110 56 -196 84 -457 147 -256 63 -339 95 -394 155 -45 49 -55 86 -49 174 10 137 130 223 333 238 157 11 272 -21 475 -133 133 -73 173 -83 224 -59 65 31 95 109 75 191 -35 137 -294 279 -574 313 -85 10 -200 13 -255 5z"
       id="path28"
       style="fill:#1a202c;fill-opacity:1" />
    <path
       d="M24135 3015 c-294 -48 -523 -204 -660 -450 -100 -178 -149 -449 -126 -692 45 -463 282 -761 691 -871 85 -23 115 -25 275 -26 209 0 298 16 440 83 291 136 461 371 521 721 25 144 15 401 -20 535 -81 312 -275 539 -548 645 -157 61 -396 84 -573 55z m379 -344 c169 -60 280 -194 338 -406 18 -69 21 -107 21 -270 0 -164 -3 -201 -22 -270 -49 -182 -135 -303 -258 -367 -92 -48 -158 -62 -283 -62 -231 0 -385 95 -479 294 -54 114 -66 191 -65 415 0 189 2 205 28 290 35 116 68 175 138 251 66 70 150 119 241 140 89 20 264 12 341 -15z"
       id="path30"
       style="fill:#1a202c;fill-opacity:1" />
    <path
       d="M27875 3020 c-355 -47 -638 -285 -749 -630 -45 -139 -59 -236 -59 -405 1 -573 314 -943 853 -1007 239 -28 492 16 725 127 146 70 215 145 215 235 0 47 -32 115 -64 136 -50 32 -94 22 -263 -58 -198 -95 -220 -103 -316 -118 -96 -16 -269 -8 -347 15 -207 62 -338 225 -379 470 -6 33 -12 77 -15 98 l-5 37 653 0 653 0 34 23 c53 35 63 67 62 183 -2 189 -53 384 -134 520 -51 85 -170 207 -252 258 -162 101 -392 144 -612 116z m266 -304 c142 -30 241 -111 309 -250 40 -82 70 -201 70 -276 l0 -40 -518 0 c-285 0 -521 2 -524 5 -8 9 11 115 34 185 65 204 199 335 382 375 81 18 166 18 247 1z"
       id="path32"
       style="fill:#1a202c;fill-opacity:1" />
    <path
       d="M30895 3020 c-385 -54 -635 -290 -635 -600 0 -200 86 -339 267 -433 113 -58 199 -87 427 -142 394 -95 476 -146 476 -296 0 -188 -186 -282 -510 -258 -136 11 -208 33 -405 127 -170 81 -211 90 -260 58 -62 -41 -79 -155 -35 -235 30 -54 130 -126 238 -171 325 -137 785 -134 1054 7 80 42 183 133 227 201 118 185 100 465 -40 610 -106 111 -253 171 -655 266 -173 41 -284 83 -326 123 -105 99 -87 275 36 360 77 53 142 68 286 67 113 0 133 -3 212 -31 48 -17 141 -60 206 -97 139 -77 189 -89 240 -56 35 22 71 88 72 130 1 122 -138 247 -355 318 -149 50 -378 72 -520 52z"
       id="path34"
       style="fill:#1a202c;fill-opacity:1" />
    <path
       d="M35140 3019 c-92 -14 -204 -54 -282 -100 -77 -45 -177 -141 -216 -207 l-27 -47 -5 115 c-7 149 -27 189 -113 225 -75 31 -182 10 -234 -46 -55 -60 -53 -27 -53 -966 0 -821 1 -870 19 -908 10 -22 27 -48 37 -57 76 -67 244 -62 307 10 45 50 46 69 47 632 0 594 3 620 64 745 79 161 234 261 431 280 81 7 190 -8 252 -35 61 -27 129 -94 159 -158 50 -105 53 -158 54 -792 0 -546 2 -588 19 -625 32 -70 93 -105 184 -105 100 0 163 37 192 115 14 36 16 116 12 686 -3 570 -6 653 -21 718 -67 283 -207 438 -455 502 -90 23 -277 32 -371 18z"
       id="path36"
       style="fill:#1a202c;fill-opacity:1" />
    <path
       d="M38635 3020 c-292 -42 -507 -169 -651 -386 -112 -169 -161 -337 -170 -584 -14 -374 94 -661 322 -860 327 -285 911 -296 1265 -24 243 186 377 527 355 902 -28 503 -296 842 -741 938 -84 18 -297 26 -380 14z m294 -335 c293 -69 446 -368 410 -800 -25 -307 -151 -499 -373 -567 -93 -29 -261 -31 -351 -4 -236 70 -354 242 -387 565 -12 125 -1 296 28 406 54 207 194 354 381 399 77 19 213 19 292 1z"
       id="path38"
       style="fill:#1a202c;fill-opacity:1" />
    <path
       d="M12187 3005 c-51 -18 -83 -49 -102 -99 -14 -37 -16 -118 -12 -696 3 -640 4 -657 25 -740 62 -235 183 -378 381 -450 156 -57 390 -66 536 -20 154 48 293 148 367 263 l33 52 5 -110 c4 -86 9 -118 25 -145 28 -49 94 -80 166 -80 69 0 104 12 142 48 66 62 62 1 65 937 2 589 -1 865 -8 902 -20 93 -94 152 -191 153 -85 0 -151 -35 -187 -98 -20 -36 -21 -54 -25 -607 -4 -629 -4 -623 -70 -750 -42 -79 -138 -175 -211 -209 -144 -68 -335 -73 -456 -11 -55 28 -111 85 -140 144 -47 94 -50 137 -50 766 0 385 -4 603 -11 628 -30 109 -161 166 -282 122z"
       id="path40"
       style="fill:#1a202c;fill-opacity:1" />
    <path
       d="M33347 3005 c-22 -7 -50 -24 -64 -37 -55 -50 -53 -17 -53 -974 0 -993 -5 -931 73 -982 36 -24 50 -27 127 -27 77 0 91 3 127 27 78 51 73 -11 73 981 0 603 -3 895 -11 914 -35 92 -162 138 -272 98z"
       id="path42"
       style="fill:#1a202c;fill-opacity:1" />
    <path
       d="M32365 1484 c-104 -37 -165 -129 -165 -250 0 -152 98 -252 249 -254 73 0 124 17 171 58 64 54 85 103 85 197 0 93 -16 134 -76 194 -66 66 -172 88 -264 55z"
       id="path44"
       style="fill:#1a202c;fill-opacity:1" />
    <path
       d="M31 1255 c52 -293 143 -520 284 -706 358 -477 1027 -648 1893 -485 l67 12 -70 13 c-517 91 -1060 315 -1510 622 -262 178 -503 406 -662 624 l-21 30 19 -110z"
       id="path46"
       style="fill:#fa213b;fill-opacity:1" />
  </g>
</svg>
